<svg version="1.1" viewBox="0.0 0.0 3000.0 3000.0" fill="none" stroke="none" stroke-linecap="square" stroke-miterlimit="10" xmlns:xlink="http://www.w3.org/1999/xlink" xmlns="http://www.w3.org/2000/svg"><clipPath id="p.0"><path d="m0 0l3000.0 0l0 3000.0l-3000.0 0l0 -3000.0z" clip-rule="nonzero"/></clipPath><g clip-path="url(#p.0)"><path fill="#000000" fill-opacity="0.0" d="m0 0l3000.0 0l0 3000.0l-3000.0 0z" fill-rule="evenodd"/><path fill="#ffffff" d="m0 0l3000.0 0l0 3000.0l-3000.0 0z" fill-rule="evenodd"/><path stroke="#999999" stroke-width="24.0" stroke-linejoin="round" stroke-linecap="butt" d="m0 0l3000.0 0l0 3000.0l-3000.0 0z" fill-rule="evenodd"/><path fill="#e03f3c" d="m144.12834 144.00354l685.2326 0l0 291.26614l-685.2326 0z" fill-rule="evenodd"/><path fill="#f4bc26" d="m829.3819 144.00354l678.4074 0l0 291.26614l-678.4074 0z" fill-rule="evenodd"/><path fill="#46a955" d="m1499.0475 144.00354l678.40735 0l0 291.26614l-678.40735 0z" fill-rule="evenodd"/><path fill="#5580f2" d="m2177.4512 144.00354l678.4075 0l0 291.26614l-678.4075 0z" fill-rule="evenodd"/><path fill="#e03f3c" d="m144.27008 2564.7358l685.23267 0l0 291.2661l-685.23267 0z" fill-rule="evenodd"/><path fill="#f4bc26" d="m829.5236 2564.7358l678.4074 0l0 291.2661l-678.4074 0z" fill-rule="evenodd"/><path fill="#46a955" d="m1499.1892 2564.7358l678.4075 0l0 291.2661l-678.4075 0z" fill-rule="evenodd"/><path fill="#5580f2" d="m2177.593 2564.7358l678.4072 0l0 291.2661l-678.4072 0z" fill-rule="evenodd"/><path fill="#f4bc26" d="m2291.3862 846.8991c87.96631 0 154.77344 23.405945 200.42188 70.21777c45.84424 46.570618 68.76636 113.65155 68.76636 201.24274c0 85.9021 -22.92212 152.25916 -68.76636 199.07104c-45.648438 46.570557 -112.45557 69.855835 -200.42188 69.855835l-238.33154 0l0 -540.3874zm-530.7357 -293.5393l0 1556.7356l292.40417 0l0 -429.26965l254.78857 0c111.867676 0 209.04199 -22.561401 291.52246 -67.68408c82.48071 -45.364136 145.95728 -110.635376 190.43018 -195.8136c44.4729 -85.17822 66.70923 -184.83435 66.70923 -298.9685c0 -115.58179 -22.236328 -215.59991 -66.70923 -300.05432c-44.4729 -84.69568 -107.94946 -149.96686 -190.43018 -195.81354c-82.48047 -46.08795 -179.65454 -69.13196 -291.52246 -69.13196z" fill-rule="evenodd"/><path fill="#e03f3c" d="m1482.3915 846.8991c87.96619 0 154.77344 23.405945 200.42175 70.21777c45.84436 46.570618 68.76648 113.65155 68.76648 201.24274c0 85.9021 -22.92212 152.25916 -68.76648 199.07104c-45.648315 46.570557 -112.45557 69.855835 -200.42175 69.855835l-238.33154 0l0 -540.3874zm-530.73584 -293.5393l0 1556.7356l292.4043 0l0 -429.26965l254.78845 0c111.86792 0 209.04211 -22.561401 291.52258 -67.68408c82.48059 -45.364136 145.95728 -110.635376 190.43018 -195.8136c44.4729 -85.17822 66.70923 -184.83435 66.70923 -298.9685c0 -115.58179 -22.236328 -215.59991 -66.70923 -300.05432c-44.4729 -84.69568 -107.949585 -149.96686 -190.43018 -195.81354c-82.48047 -46.08795 -179.65466 -69.13196 -291.52258 -69.13196z" fill-rule="evenodd"/><path fill="#5580f2" d="m674.0992 846.9035c87.96619 0 154.7735 23.405945 200.42188 70.21777c45.84424 46.570557 68.76642 113.65143 68.76642 201.24274c0 85.9021 -22.92218 152.25916 -68.76642 199.07104c-45.648376 46.570557 -112.45569 69.855835 -200.42188 69.855835l-238.33148 0l0 -540.3874zm-530.7357 -293.5393l0 1556.7354l292.40427 0l0 -429.2694l254.78845 0c111.86786 0 209.04211 -22.561523 291.52264 -67.684204c82.48053 -45.364136 145.95721 -110.635376 190.43011 -195.81348c44.4729 -85.17822 66.70935 -184.83435 66.70935 -298.9685c0 -115.58185 -22.23645 -215.59991 -66.70935 -300.05438c-44.4729 -84.69568 -107.949585 -149.96686 -190.43011 -195.81354c-82.48053 -46.08795 -179.65472 -69.1319 -291.52264 -69.1319z" fill-rule="evenodd"/><path fill="#999999" d="m212.03381 2257.4846c8.241562 0 15.504059 1.8850098 21.787552 5.6552734c6.283493 3.7700195 11.222565 8.942871 14.817291 15.518555c3.5947266 6.546631 5.39209 14.130615 5.39209 22.751953c0 8.066406 -1.7973633 15.241211 -5.39209 21.524658c-3.5947266 6.2834473 -8.533798 11.222412 -14.817291 14.817383c-6.283493 3.5947266 -13.54599 5.39209 -21.787552 5.39209l-39.8927 0l0 -85.65991zm-53.87706 -25.820557c-3.9454346 0 -7.27713 1.3005371 -9.995102 3.9016113c-2.6887665 2.6010742 -4.0331116 5.961914 -4.0331116 10.082764l0 182.3667c0 3.9453125 1.3443451 7.262451 4.0331116 9.951172c2.7179718 2.6887207 6.0496674 4.033203 9.995102 4.033203c4.1207733 0 7.481674 -1.3444824 10.082764 -4.033203c2.6010895 -2.6887207 3.901596 -6.0058594 3.901596 -9.951172l0 -59.006348l39.8927 0c13.443665 0 25.36763 -2.8640137 35.77191 -8.592041c10.433472 -5.7575684 18.572723 -13.750732 24.417847 -23.979492c5.845093 -10.258301 8.767609 -21.933838 8.767609 -35.026855c0 -13.648193 -2.9225159 -25.718262 -8.767609 -36.210205c-5.8451233 -10.52124 -13.984375 -18.733398 -24.417847 -24.636963c-10.404282 -5.9328613 -22.328247 -8.89917 -35.77191 -8.89917z" fill-rule="evenodd"/><path fill="#999999" d="m325.2988 2235.1272c-4.85141 0 -9.03067 1.7536621 -12.53772 5.260742c-3.4778442 3.506836 -5.216736 7.6862793 -5.216736 12.537598c0 4.8513184 1.7388916 9.030762 5.216736 12.537598c3.5070496 3.4780273 7.68631 5.216797 12.53772 5.216797c4.8513794 0 9.03064 -1.7387695 12.537689 -5.216797c3.5070496 -3.506836 5.2605896 -7.6862793 5.2605896 -12.537598c0 -4.8513184 -1.75354 -9.030762 -5.2605896 -12.537598c-3.5070496 -3.50708 -7.68631 -5.260742 -12.537689 -5.260742zm0.39453125 59.532227c-3.9454346 0 -7.233307 1.2565918 -9.863586 3.7700195c-2.6010742 2.5134277 -3.9015808 5.845215 -3.9015808 9.995117l0 119.853516c0 3.9453125 1.3005066 7.21875 3.9015808 9.819824c2.6302795 2.6010742 5.918152 3.9016113 9.863586 3.9016113c4.1207886 0 7.4378357 -1.3005371 9.951263 -3.9016113c2.5133972 -2.6010742 3.7700806 -5.8745117 3.7700806 -9.819824l0 -119.853516c0 -4.1499023 -1.2566833 -7.4816895 -3.7700806 -9.995117c-2.5134277 -2.5134277 -5.830475 -3.7700195 -9.951263 -3.7700195z" fill-rule="evenodd"/><path fill="#999999" d="m388.4471 2294.6594c-3.9454346 0 -6.911804 1.1689453 -8.89917 3.50708c-1.9873352 2.3381348 -2.8933105 5.1728516 -2.7179565 8.504639c0.20455933 3.3024902 1.4758606 6.4003906 3.8139343 9.293701l44.385742 52.52368l-41.71164 52.249268c-2.5133972 3.2148438 -3.7700806 6.444336 -3.7700806 9.688232c0 3.2148438 1.0229187 5.94751 3.068695 8.197754c2.0750122 2.2504883 4.909851 3.3757324 8.504578 3.3757324c3.7700806 0 6.999481 -1.4321289 9.688232 -4.2961426l40.78778 -51.30835l42.723877 51.30835c1.4320068 1.7827148 2.9516907 2.9516602 4.559143 3.506836c1.6366577 0.52612305 3.346344 0.78930664 5.129059 0.78930664c3.5947266 0 6.5172424 -1.0668945 8.767639 -3.2001953c2.2503967 -2.1628418 3.4193726 -4.807617 3.5070496 -7.9348145c0.087677 -3.15625 -1.2128296 -6.3564453 -3.9015808 -9.600586l-42.71292 -51.10742l40.56485 -53.13965c2.5133972 -3.2148438 3.8139038 -6.5317383 3.9015808 -9.951172c0.087677 -3.4194336 -0.8621216 -6.342041 -2.8494873 -8.767578c-1.9580688 -2.4257812 -4.924408 -3.6386719 -8.899139 -3.6386719c-1.9580688 0 -3.7554321 0.3215332 -5.39209 0.96435547c-1.6073608 0.61376953 -3.1270447 1.8266602 -4.559143 3.6386719l-39.620514 52.64038l-44.154175 -52.64038c-2.5133972 -3.0686035 -5.918152 -4.6030273 -10.214264 -4.6030273z" fill-rule="evenodd"/><path fill="#999999" d="m592.3385 2316.754c8.972168 0 16.600037 2.0749512 22.883484 6.2248535c6.2835083 4.1208496 11.134888 9.732178 14.55426 16.833984c2.4313354 5.0288086 4.0425415 10.537842 4.8338013 16.526855l-89.71527 0c0.923584 -5.1311035 2.4615479 -9.924072 4.6138916 -14.378906c3.7700806 -7.8322754 9.29364 -13.984375 16.5708 -18.45581c7.2770996 -4.5007324 16.03009 -6.7509766 26.259033 -6.7509766zm0 -23.146484c-14.203552 0 -26.785095 3.1855469 -37.74463 9.556641c-10.930359 6.3710938 -19.493408 15.167969 -25.689148 26.390625c-6.195801 11.222412 -9.293701 24.198486 -9.293701 38.928223c0 14.524902 3.2732544 27.398682 9.819763 38.621338c6.546509 11.222656 15.606384 20.033936 27.179626 26.434326c11.602478 6.3710938 24.856262 9.556885 39.76117 9.556885c8.270813 0 16.936096 -1.5197754 25.996033 -4.559326c9.0598755 -3.0686035 16.64386 -7.0285645 22.752014 -11.880127c3.0394287 -2.3378906 4.4714966 -5.114502 4.2961426 -8.329102c-0.175354 -3.2441406 -1.7827148 -6.210449 -4.8222046 -8.89917c-2.2392578 -1.9033203 -4.853821 -2.8552246 -7.843689 -2.8552246c-0.13195801 0 -0.2645874 0.001953125 -0.39788818 0.0056152344c-3.1271362 0.087646484 -6.035095 1.1252441 -8.723816 3.1125488c-3.5947266 2.6887207 -8.314575 5.0705566 -14.159668 7.145752c-5.845154 2.0456543 -11.544067 3.0686035 -17.096924 3.0686035c-10.228882 0 -19.303406 -2.2358398 -27.22345 -6.7072754c-7.890869 -4.5007324 -14.08667 -10.608887 -18.587341 -18.324463c-2.9960938 -5.1694336 -4.9884033 -10.824707 -5.9769897 -16.965332l102.42084 0c3.5947266 0 6.561096 -1.125 8.89917 -3.3754883c2.3380737 -2.2502441 3.507019 -5.085205 3.507019 -8.504639c0 -14.174316 -2.6594849 -26.682617 -7.9785156 -37.52539c-5.289795 -10.871826 -12.961426 -19.405762 -23.015015 -25.601318c-10.053589 -6.195801 -22.079895 -9.293701 -36.078796 -9.293701z" fill-rule="evenodd"/><path fill="#999999" d="m702.4784 2231.664c-3.9454346 0 -7.1748047 1.2565918 -9.688232 3.7700195c-2.5134277 2.5134277 -3.7700806 5.74292 -3.7700806 9.688232l0 147.0332c0 9.702881 1.7096558 18.280518 5.1290283 25.73291c3.4194336 7.4523926 8.168579 13.341309 14.247437 17.666748c6.1081543 4.2961426 13.122253 6.444336 21.042297 6.444336l0.526062 0c5.3774414 0 9.775879 -1.2568359 13.195251 -3.7702637c3.4193726 -2.5134277 5.1290894 -5.742676 5.1290894 -9.688232c0 -3.9453125 -1.1251831 -7.1748047 -3.3755493 -9.688232c-2.2503662 -2.5134277 -5.1729126 -3.7700195 -8.767639 -3.7700195l-6.7072144 0c-3.9454346 0 -7.189453 -2.1479492 -9.732056 -6.444092c-2.5134277 -4.3254395 -3.7700806 -9.819824 -3.7700806 -16.483154l0 -147.0332c0 -3.9453125 -1.2566528 -7.1748047 -3.7700806 -9.688232c-2.5134277 -2.5134277 -5.742798 -3.7700195 -9.688232 -3.7700195z" fill-rule="evenodd"/><path fill="#999999" d="m924.711 2257.4846c8.241577 0 15.504089 1.8850098 21.787537 5.6552734c6.2834473 3.7700195 11.222595 8.942871 14.817322 15.518555c3.5947266 6.546631 5.39209 14.130615 5.39209 22.751953c0 8.066406 -1.7973633 15.241211 -5.39209 21.524658c-3.5947266 6.2834473 -8.5338745 11.222412 -14.817322 14.817383c-6.2834473 3.5947266 -13.545959 5.39209 -21.787537 5.39209l-39.8927 0l0 -85.65991zm-53.877075 -25.820557c-3.9454346 0 -7.2770996 1.3005371 -9.995056 3.9016113c-2.6887817 2.6010742 -4.033142 5.961914 -4.033142 10.082764l0 182.3667c0 3.9453125 1.3443604 7.262451 4.033142 9.951172c2.7179565 2.6887207 6.0496216 4.033203 9.995056 4.033203c4.1207886 0 7.4817505 -1.3444824 10.082764 -4.033203c2.6010742 -2.6887207 3.9016113 -6.0058594 3.9016113 -9.951172l0 -59.006348l39.8927 0c13.443726 0 25.367676 -2.8640137 35.77191 -8.592041c10.433472 -5.7575684 18.572754 -13.750732 24.417847 -23.979492c5.8450317 -10.258301 8.767639 -21.933838 8.767639 -35.026855c0 -13.648193 -2.9226074 -25.718262 -8.767639 -36.210205c-5.845093 -10.52124 -13.984375 -18.733398 -24.417847 -24.636963c-10.404236 -5.9328613 -22.328186 -8.89917 -35.77191 -8.89917z" fill-rule="evenodd"/><path fill="#999999" d="m1083.3538 2317.8499c9.322876 0 17.579102 2.1625977 24.768555 6.488037c7.189453 4.2961426 12.800659 10.258057 16.833862 17.885986c4.033081 7.6276855 6.0495605 16.38086 6.0495605 26.259033c0 9.878174 -2.0164795 18.587402 -6.0495605 26.127441c-4.033203 7.540283 -9.644409 13.4729 -16.833862 17.79834c-7.189453 4.2961426 -15.445679 6.444092 -24.768555 6.444092c-9.352173 0 -17.622925 -2.1479492 -24.812378 -6.444092c-7.1602783 -4.3254395 -12.815308 -10.258057 -16.965332 -17.79834c-4.1208496 -7.540039 -6.1812744 -16.249268 -6.1812744 -26.127441c0 -9.878174 2.0604248 -18.631348 6.1812744 -26.259033c4.1500244 -7.6279297 9.805054 -13.589844 16.965332 -17.885986c7.189453 -4.3254395 15.460205 -6.488037 24.812378 -6.488037zm0 -24.242432c-14.554321 0 -27.398804 3.1855469 -38.53369 9.556641c-11.134888 6.3710938 -19.88794 15.167969 -26.259094 26.390625c-6.3710938 11.222412 -9.556702 24.198486 -9.556702 38.928223c0 14.524902 3.185608 27.398682 9.556702 38.621338c6.371155 11.222656 15.124207 20.033936 26.259094 26.434326c11.134888 6.3710938 23.97937 9.556885 38.53369 9.556885c14.525024 0 27.35498 -3.185791 38.48987 -9.556885c11.134888 -6.4003906 19.843994 -15.21167 26.127563 -26.434326c6.2834473 -11.222656 9.425171 -24.096436 9.425171 -38.621338c0 -14.729736 -3.1855469 -27.70581 -9.556763 -38.928223c-6.3710938 -11.222656 -15.1241455 -20.019531 -26.259033 -26.390625c-11.134888 -6.3710938 -23.877197 -9.556641 -38.226807 -9.556641z" fill-rule="evenodd"/><path fill="#999999" d="m1181.6334 2294.6594c-5.2021484 0 -8.562988 1.753418 -10.082764 5.260498c-1.5196533 3.50708 -1.5635986 8.037109 -0.13146973 13.589844l39.848877 119.590576c0.9058838 2.5134277 2.5717773 4.63208 4.9974365 6.3564453c2.4257812 1.6950684 5.0706787 2.5427246 7.9348145 2.5427246c3.0686035 0 5.8011475 -0.84765625 8.197632 -2.5427246c2.4257812 -1.7243652 4.0039062 -3.8432617 4.734619 -6.3564453l27.717041 -97.71948l26.422974 97.71948c0.7305908 2.5134277 2.3526611 4.63208 4.866089 6.3564453c2.5133057 1.6950684 5.2021484 2.5427246 8.066162 2.5427246c3.0394287 0 5.7282715 -0.84765625 8.066284 -2.5427246c2.3380127 -1.7243652 3.8723145 -3.8432617 4.6029053 -6.3564453l39.848877 -119.590576c1.9873047 -5.5527344 2.0750732 -10.082764 0.26306152 -13.589844c-1.7827148 -3.50708 -5.1875 -5.260498 -10.214233 -5.260498c-6.838745 0 -11.514893 4.135498 -14.028198 12.40625l-29.547974 92.637695l-24.329102 -94.78589c-0.701416 -3.0686035 -2.1773682 -5.538086 -4.4277344 -7.4084473c-2.2503662 -1.8996582 -5.1728516 -2.8496094 -8.767578 -2.8496094c-3.7701416 0 -6.73645 0.9499512 -8.89917 2.8496094c-2.1334229 1.8703613 -3.6531982 4.3398438 -4.559204 7.4084473l-27.51477 92.97095l-29.036377 -90.822754c-1.4320068 -4.5007324 -3.2731934 -7.6862793 -5.5235596 -9.556641c-2.2503662 -1.8996582 -5.085205 -2.8496094 -8.504639 -2.8496094z" fill-rule="evenodd"/><path fill="#999999" d="m1446.1505 2316.754c8.972168 0 16.599976 2.0749512 22.883545 6.2248535c6.2834473 4.1208496 11.134766 9.732178 14.554199 16.833984c2.4312744 5.0288086 4.0424805 10.537842 4.83374 16.526855l-89.71521 0c0.923584 -5.1311035 2.4615479 -9.924072 4.6138916 -14.378906c3.7700195 -7.8322754 9.293701 -13.984375 16.5708 -18.45581c7.2770996 -4.5007324 16.030151 -6.7509766 26.259033 -6.7509766zm0 -23.146484c-14.203613 0 -26.785156 3.1855469 -37.74463 9.556641c-10.930298 6.3710938 -19.493408 15.167969 -25.689209 26.390625c-6.195801 11.222412 -9.293579 24.198486 -9.293579 38.928223c0 14.524902 3.2731934 27.398682 9.819702 38.621338c6.546509 11.222656 15.606323 20.033936 27.179565 26.434326c11.602539 6.3710938 24.856323 9.556885 39.76123 9.556885c8.270752 0 16.936157 -1.5197754 25.995972 -4.559326c9.059937 -3.0686035 16.64392 -7.0285645 22.752075 -11.880127c3.0394287 -2.3378906 4.4714355 -5.114502 4.2961426 -8.329102c-0.17541504 -3.2441406 -1.7828369 -6.210449 -4.8222656 -8.89917c-2.2392578 -1.9033203 -4.85376 -2.8552246 -7.843628 -2.8552246c-0.13195801 0 -0.26452637 0.001953125 -0.39794922 0.0056152344c-3.1270752 0.087646484 -6.035034 1.1252441 -8.723755 3.1125488c-3.5947266 2.6887207 -8.314575 5.0705566 -14.159668 7.145752c-5.845093 2.0456543 -11.544067 3.0686035 -17.096924 3.0686035c-10.228882 0 -19.303345 -2.2358398 -27.22351 -6.7072754c-7.890869 -4.5007324 -14.08667 -10.608887 -18.58728 -18.324463c-2.9960938 -5.1694336 -4.9884033 -10.824707 -5.977051 -16.965332l102.4209 0c3.5947266 0 6.561157 -1.125 8.89917 -3.3754883c2.3380127 -2.2502441 3.506958 -5.085205 3.506958 -8.504639c0 -14.174316 -2.6594238 -26.682617 -7.9785156 -37.52539c-5.289795 -10.871826 -12.961426 -19.405762 -23.015015 -25.601318c-10.053467 -6.195801 -22.079834 -9.293701 -36.078735 -9.293701z" fill-rule="evenodd"/><path fill="#999999" d="m1620.4255 2293.0374c-10.78418 0 -20.662354 2.5134277 -29.634521 7.540283c-6.0462646 3.3874512 -11.262939 7.571289 -15.650269 12.55127l0 0l0 -5.0112305c0 -4.4714355 -1.1251221 -7.8322754 -3.3754883 -10.082764c-2.2211914 -2.2502441 -5.5820312 -3.3754883 -10.082764 -3.3754883c-4.2961426 0 -7.6132812 1.1689453 -9.951294 3.50708c-2.3380127 2.3381348 -3.50708 5.6550293 -3.50708 9.951172l0 120.42334c0 4.4716797 1.1690674 7.8325195 3.50708 10.082764c2.3380127 2.2504883 5.6551514 3.3757324 9.951294 3.3757324c4.5007324 0 7.8615723 -1.1691895 10.082764 -3.50708c2.2503662 -2.3381348 3.3754883 -5.6552734 3.3754883 -9.951416l0 -78.64551c0 -8.270752 2.6448975 -15.094971 7.9346924 -20.472412c5.319092 -5.4067383 12.552368 -9.089111 21.699951 -11.047119c4.2163086 -0.9133301 8.676392 -1.369873 13.380127 -1.369873c5.5338135 0 11.404907 0.6320801 17.613403 1.895752c1.4329834 0.34033203 2.7945557 0.51049805 4.084839 0.51049805c0.8149414 0 1.6013184 -0.067871094 2.359375 -0.20361328c1.9873047 -0.3798828 3.7408447 -1.2419434 5.260498 -2.5864258c1.5197754 -1.3442383 2.557251 -3.2731934 3.1125488 -5.786621c1.2567139 -4.8513184 -0.77441406 -9.030762 -6.093506 -12.537598c-5.289795 -3.50708 -13.312134 -5.260742 -24.067139 -5.260742z" fill-rule="evenodd"/><path fill="#999999" d="m1828.6206 2257.4846c8.241455 0 15.504028 1.8850098 21.787476 5.6552734c6.2834473 3.7700195 11.222534 8.942871 14.817261 15.518555c3.5947266 6.546631 5.39209 14.130615 5.39209 22.751953c0 8.066406 -1.7973633 15.241211 -5.39209 21.524658c-3.5947266 6.2834473 -8.533813 11.222412 -14.817261 14.817383c-6.2834473 3.5947266 -13.5460205 5.39209 -21.787476 5.39209l-39.8927 0l0 -85.65991zm-53.877075 -25.820557c-3.9454346 0 -7.2772217 1.3005371 -9.995117 3.9016113c-2.6887207 2.6010742 -4.033081 5.961914 -4.033081 10.082764l0 182.3667c0 3.9453125 1.3443604 7.262451 4.033081 9.951172c2.7178955 2.6887207 6.0496826 4.033203 9.995117 4.033203c4.1207275 0 7.4816895 -1.3444824 10.082764 -4.033203c2.6010742 -2.6887207 3.9016113 -6.0058594 3.9016113 -9.951172l0 -59.006348l39.8927 0c13.4436035 0 25.367554 -2.8640137 35.77185 -8.592041c10.433472 -5.7575684 18.572754 -13.750732 24.417847 -23.979492c5.845093 -10.258301 8.767578 -21.933838 8.767578 -35.026855c0 -13.648193 -2.9224854 -25.718262 -8.767578 -36.210205c-5.845093 -10.52124 -13.984375 -18.733398 -24.417847 -24.636963c-10.404175 -5.9328613 -22.328247 -8.89917 -35.77185 -8.89917z" fill-rule="evenodd"/><path fill="#999999" d="m1987.2634 2317.8499c9.322876 0 17.579102 2.1625977 24.768555 6.488037c7.189453 4.2961426 12.800659 10.258057 16.83374 17.885986c4.033203 7.6276855 6.0496826 16.38086 6.0496826 26.259033c0 9.878174 -2.0164795 18.587402 -6.0496826 26.127441c-4.033081 7.540283 -9.644287 13.4729 -16.83374 17.79834c-7.189453 4.2961426 -15.445679 6.444092 -24.768555 6.444092c-9.352173 0 -17.622925 -2.1479492 -24.812378 -6.444092c-7.1602783 -4.3254395 -12.81543 -10.258057 -16.965454 -17.79834c-4.1207275 -7.540039 -6.1811523 -16.249268 -6.1811523 -26.127441c0 -9.878174 2.0604248 -18.631348 6.1811523 -26.259033c4.1500244 -7.6279297 9.805176 -13.589844 16.965454 -17.885986c7.189453 -4.3254395 15.460205 -6.488037 24.812378 -6.488037zm0 -24.242432c-14.554321 0 -27.398926 3.1855469 -38.533813 9.556641c-11.134888 6.3710938 -19.887817 15.167969 -26.259033 26.390625c-6.3710938 11.222412 -9.556641 24.198486 -9.556641 38.928223c0 14.524902 3.1855469 27.398682 9.556641 38.621338c6.371216 11.222656 15.1241455 20.033936 26.259033 26.434326c11.134888 6.3710938 23.979492 9.556885 38.533813 9.556885c14.525024 0 27.35498 -3.185791 38.48987 -9.556885c11.134888 -6.4003906 19.843994 -15.21167 26.127563 -26.434326c6.2834473 -11.222656 9.425049 -24.096436 9.425049 -38.621338c0 -14.729736 -3.1855469 -27.70581 -9.556641 -38.928223c-6.3710938 -11.222656 -15.1241455 -20.019531 -26.259033 -26.390625c-11.134888 -6.3710938 -23.877197 -9.556641 -38.226807 -9.556641z" fill-rule="evenodd"/><path fill="#999999" d="m2169.0688 2317.8499c9.147461 0 17.316162 2.206543 24.505615 6.619629c7.189453 4.383789 12.844482 10.345703 16.965332 17.885742c4.1206055 7.540283 6.1811523 16.161865 6.1811523 25.864502c0 9.498291 -2.0605469 18.119873 -6.1811523 25.864502c-4.1208496 7.715576 -9.775879 13.779785 -16.965332 18.192871c-7.189453 4.383789 -15.358154 6.5756836 -24.505615 6.5756836c-9.001465 0 -17.140625 -2.1918945 -24.417725 -6.5756836c-7.248047 -4.413086 -12.990723 -10.477295 -17.228516 -18.192871c-4.208496 -7.744629 -6.312744 -16.36621 -6.312744 -25.864502c0 -9.702637 2.104248 -18.324219 6.312744 -25.864502c4.237793 -7.540039 9.980469 -13.501953 17.228516 -17.885742c7.2770996 -4.413086 15.41626 -6.619629 24.417725 -6.619629zm60.32129 -86.18579c-3.9455566 0 -7.21875 1.2565918 -9.819824 3.7700195c-2.6010742 2.5134277 -3.9016113 5.8305664 -3.9016113 9.951416l0 72.727295c-6.1081543 -7.540039 -13.662842 -13.502197 -22.664307 -17.885986c-8.972168 -4.413086 -18.748047 -6.619385 -29.327637 -6.619385c-13.122314 0 -24.885498 3.2731934 -35.289795 9.81958c-10.404053 6.546631 -18.616455 15.431152 -24.636963 26.653564c-6.020508 11.222656 -9.030518 23.935791 -9.030518 38.13916c0 14.174316 3.2731934 26.916748 9.81958 38.22705c6.546631 11.310059 15.431152 20.253174 26.653564 26.828857c11.222656 6.5463867 23.8479 9.819824 37.87622 9.819824c13.999023 0 26.565918 -3.2734375 37.700684 -9.819824c11.13501 -6.5756836 19.975586 -15.518799 26.522217 -26.828857c6.5463867 -11.310303 9.819824 -24.052734 9.819824 -38.22705l0 -122.83423c0 -4.1208496 -1.2568359 -7.4379883 -3.7702637 -9.951416c-2.5134277 -2.5134277 -5.8303223 -3.7700195 -9.951172 -3.7700195z" fill-rule="evenodd"/><path fill="#999999" d="m2357.057 2293.6074c-14.174316 0 -26.74121 3.1855469 -37.700928 9.556641c-10.959473 6.3710938 -19.58081 15.211914 -25.864502 26.521973c-6.2834473 11.310303 -9.425049 24.242676 -9.425049 38.796875c0 14.174316 3.1855469 26.872803 9.556641 38.095215c6.3710938 11.222656 15.167969 20.121826 26.390625 26.69751c11.222412 6.5463867 24.023193 9.819824 38.4021 9.819824c19.376465 0 35.538086 -6.020508 48.485107 -18.061523c2.5134277 -2.5131836 3.5800781 -5.333496 3.2001953 -8.460693c-0.35083008 -3.15625 -2.0458984 -5.991211 -5.085205 -8.504639c-2.03833 -1.7324219 -4.354248 -2.5986328 -6.947998 -2.5986328c-0.38134766 0 -0.7687988 0.018554688 -1.1621094 0.056152344c-3.0395508 0.26293945 -5.991211 1.5634766 -8.855225 3.9016113c-3.9748535 3.2148438 -8.343994 5.5966797 -13.107666 7.145508c-4.734619 1.5197754 -10.243652 2.279541 -16.5271 2.279541c-9.527344 0 -17.885986 -2.1918945 -25.07544 -6.5756836c-7.1601562 -4.413086 -12.771484 -10.389648 -16.83374 -17.929688c-4.033203 -7.569336 -6.0495605 -16.190918 -6.0495605 -25.864502c0 -10.258301 1.9726562 -19.157227 5.9179688 -26.69751c3.9455566 -7.540039 9.425293 -13.414551 16.439453 -17.622803c7.013916 -4.208496 15.094971 -6.312744 24.242432 -6.312744c13.093018 0 24.05249 4.661377 32.878662 13.984375c2.5134277 2.5134277 5.289795 4.0915527 8.329102 4.734375c0.7783203 0.15722656 1.5395508 0.23583984 2.2834473 0.23583984c2.1608887 0 4.1760254 -0.66308594 6.0458984 -1.9892578c3.2438965 -2.3381348 5.216797 -5.0268555 5.918213 -8.066162c0.73046875 -3.0688477 -0.16088867 -6.0351562 -2.6743164 -8.89917c-6.9848633 -8.095459 -14.890381 -14.159668 -23.716309 -18.192871c-8.796875 -4.033203 -18.485107 -6.0495605 -29.064697 -6.0495605z" fill-rule="evenodd"/><path fill="#999999" d="m2520.29 2317.8499c9.147461 0 17.316162 2.206543 24.505615 6.619629c7.189453 4.383789 12.844482 10.389404 16.965332 18.017334c4.1206055 7.6279297 6.1811523 16.293213 6.1811523 25.996094c0 9.498291 -2.0605469 18.075928 -6.1811523 25.73291c-4.1208496 7.6279297 -9.775879 13.648193 -16.965332 18.06128c-7.189453 4.383789 -15.358154 6.5756836 -24.505615 6.5756836c-9.001465 0 -17.140625 -2.1918945 -24.417969 -6.5756836c-7.2478027 -4.413086 -12.990723 -10.43335 -17.228271 -18.06128c-4.208496 -7.6569824 -6.312744 -16.23462 -6.312744 -25.73291c0 -9.702881 2.104248 -18.368164 6.312744 -25.996094c4.237549 -7.6279297 9.980469 -13.633545 17.228271 -18.017334c7.2773438 -4.413086 15.416504 -6.619629 24.417969 -6.619629zm0 -24.242432c-14.02832 0 -26.653564 3.2731934 -37.87622 9.81958c-11.222412 6.546631 -20.106934 15.4748535 -26.653564 26.785156c-6.5463867 11.310303 -9.81958 24.067139 -9.81958 38.270752c0 14.174316 3.0100098 26.872803 9.030518 38.095215c6.020508 11.222656 14.23291 20.121826 24.636963 26.69751c10.404297 6.5463867 22.167725 9.819824 35.289795 9.819824c13.093018 0 24.841553 -3.2734375 35.24585 -9.819824c6.416748 -4.0441895 11.998779 -8.967041 16.746094 -14.768555l0 0l0 10.033936c0 3.9455566 1.3005371 7.21875 3.9016113 9.819824c2.6010742 2.6010742 5.8742676 3.9016113 9.819824 3.9016113c3.9453125 0 7.218506 -1.3005371 9.819824 -3.9016113c2.6010742 -2.6010742 3.9013672 -5.8742676 3.9013672 -9.819824l0 -60.058105c0 -14.203613 -3.2731934 -26.96045 -9.81958 -38.270752c-6.546631 -11.310303 -15.387207 -20.238525 -26.522217 -26.785156c-11.134766 -6.5463867 -23.70166 -9.81958 -37.700684 -9.81958z" fill-rule="evenodd"/><path fill="#999999" d="m2687.0151 2293.6074c-9.176758 0 -17.988281 1.4758301 -26.434326 4.42749c-8.416992 2.9519043 -15.328857 7.4379883 -20.735352 13.458252c-5.3776855 6.020508 -8.066406 13.604492 -8.066406 22.752197c0 10.43335 4.0769043 19.244873 12.230957 26.434326c8.183105 7.1601562 21.349121 12.537598 39.498047 16.132324c13.999023 2.5134277 23.643555 5.7575684 28.93335 9.732178c5.289551 3.9453125 7.846924 8.606934 7.671631 13.984375c-0.17553711 5.3774414 -3.010254 9.775879 -8.504639 13.1953125c-5.465088 3.4191895 -13.399902 5.1289062 -23.8042 5.1289062c-8.270752 0 -15.76709 -1.4758301 -22.489014 -4.42749c-6.7216797 -2.980957 -11.616943 -6.1811523 -14.685547 -9.600586c-2.5134277 -2.6887207 -5.5236816 -4.2524414 -9.030762 -4.690674c-0.48388672 -0.06518555 -0.96899414 -0.09765625 -1.4550781 -0.09765625c-3.0080566 0 -6.059326 1.2453613 -9.153809 3.736084c-3.0686035 2.308838 -4.83667 5.3044434 -5.3044434 8.986816c-0.43823242 3.682373 0.701416 6.970459 3.4194336 9.86377c5.9035645 5.9033203 14.203613 10.798584 24.900146 14.685547c10.696533 3.8579102 22.328125 5.786865 34.89502 5.786865c12.742432 0 23.380371 -1.9729004 31.914307 -5.918213c8.533691 -3.9746094 14.992676 -9.279053 19.376465 -15.91333c4.412842 -6.634033 6.619385 -14.08667 6.619385 -22.357422c0 -7.189453 -1.7097168 -13.516846 -5.1289062 -18.981934c-3.4194336 -5.494385 -9.030762 -10.302002 -16.833984 -14.422607c-7.8032227 -4.1208496 -18.441162 -7.525635 -31.914062 -10.214355c-9.702881 -1.9873047 -17.067627 -4.0039062 -22.094482 -6.0498047c-5.0266113 -2.0749512 -8.402344 -4.412842 -10.126465 -7.013916c-1.6950684 -2.6010742 -2.5427246 -5.5236816 -2.5427246 -8.767578c0 -5.2021484 2.732666 -9.147705 8.197754 -11.836426c5.494385 -2.7180176 12.187012 -4.0769043 20.07788 -4.0769043c6.838623 0 12.859131 0.8183594 18.06128 2.454834c5.2021484 1.6074219 10.053467 4.5739746 14.554199 8.89917c2.6887207 2.5134277 6.0058594 4.135498 9.951416 4.865967c1.0290527 0.18310547 2.022705 0.2746582 2.9802246 0.2746582c2.713379 0 5.13916 -0.73461914 7.277832 -2.2033691c2.8640137 -2.1628418 4.383789 -4.807617 4.559082 -7.9348145c0.17529297 -3.15625 -0.99365234 -6.166504 -3.50708 -9.030518c-5.3774414 -6.6342773 -12.654541 -11.836426 -21.831299 -15.606445c-9.147461 -3.7700195 -19.639404 -5.6550293 -31.47583 -5.6550293z" fill-rule="evenodd"/><path fill="#999999" d="m2801.178 2247.7964c-3.9453125 0 -7.1748047 1.2568359 -9.688232 3.7702637c-2.5134277 2.5131836 -3.7700195 5.742676 -3.7700195 9.688232l0 38.79663l-12.362305 0c-3.7700195 0 -6.8242188 1.0812988 -9.162109 3.2441406c-2.3381348 2.1625977 -3.50708 5.0266113 -3.50708 8.592285c0 3.2438965 1.1689453 5.9472656 3.50708 8.109863c2.3378906 2.133545 5.39209 3.2001953 9.162109 3.2001953l12.362305 0l0 66.54639c0 9.878174 2.0603027 18.777344 6.1811523 26.697266c4.1501465 7.890869 9.805176 14.130615 16.965332 18.718994c7.189453 4.559082 15.284912 6.838867 24.286377 6.838867l4.8222656 0c4.6760254 0 8.48999 -1.2568359 11.44165 -3.7702637c2.980957 -2.5134277 4.4714355 -5.742676 4.4714355 -9.688232c0 -3.9453125 -1.125 -7.1748047 -3.3754883 -9.688232c-2.2502441 -2.5134277 -4.98291 -3.7700195 -8.197754 -3.7700195l-9.162109 0c-5.757324 0 -10.608887 -2.4257812 -14.554199 -7.2770996c-3.9455566 -4.8513184 -5.918213 -10.871826 -5.918213 -18.06128l0 -66.54639l22.883545 0c3.7700195 0 6.8239746 -1.0666504 9.162109 -3.2001953c2.3381348 -2.1625977 3.50708 -4.865967 3.50708 -8.109863c0 -3.5656738 -1.1689453 -6.4296875 -3.50708 -8.592285c-2.3381348 -2.1628418 -5.39209 -3.2441406 -9.162109 -3.2441406l-22.883545 0l0 -38.79663c0 -3.9455566 -1.2565918 -7.175049 -3.7700195 -9.688232c-2.5134277 -2.5134277 -5.7575684 -3.7702637 -9.732178 -3.7702637z" fill-rule="evenodd"/><path stroke="#999999" stroke-width="1.0" stroke-linejoin="round" stroke-linecap="butt" d="m212.03381 2257.4846c8.241562 0 15.504059 1.8850098 21.787552 5.6552734c6.283493 3.7700195 11.222565 8.942871 14.817291 15.518555c3.5947266 6.546631 5.39209 14.130615 5.39209 22.751953c0 8.066406 -1.7973633 15.241211 -5.39209 21.524658c-3.5947266 6.2834473 -8.533798 11.222412 -14.817291 14.817383c-6.283493 3.5947266 -13.54599 5.39209 -21.787552 5.39209l-39.8927 0l0 -85.65991zm-53.87706 -25.820557c-3.9454346 0 -7.27713 1.3005371 -9.995102 3.9016113c-2.6887665 2.6010742 -4.0331116 5.961914 -4.0331116 10.082764l0 182.3667c0 3.9453125 1.3443451 7.262451 4.0331116 9.951172c2.7179718 2.6887207 6.0496674 4.033203 9.995102 4.033203c4.1207733 0 7.481674 -1.3444824 10.082764 -4.033203c2.6010895 -2.6887207 3.901596 -6.0058594 3.901596 -9.951172l0 -59.006348l39.8927 0c13.443665 0 25.36763 -2.8640137 35.77191 -8.592041c10.433472 -5.7575684 18.572723 -13.750732 24.417847 -23.979492c5.845093 -10.258301 8.767609 -21.933838 8.767609 -35.026855c0 -13.648193 -2.9225159 -25.718262 -8.767609 -36.210205c-5.8451233 -10.52124 -13.984375 -18.733398 -24.417847 -24.636963c-10.404282 -5.9328613 -22.328247 -8.89917 -35.77191 -8.89917z" fill-rule="evenodd"/><path stroke="#999999" stroke-width="1.0" stroke-linejoin="round" stroke-linecap="butt" d="m325.2988 2235.1272c-4.85141 0 -9.03067 1.7536621 -12.53772 5.260742c-3.4778442 3.506836 -5.216736 7.6862793 -5.216736 12.537598c0 4.8513184 1.7388916 9.030762 5.216736 12.537598c3.5070496 3.4780273 7.68631 5.216797 12.53772 5.216797c4.8513794 0 9.03064 -1.7387695 12.537689 -5.216797c3.5070496 -3.506836 5.2605896 -7.6862793 5.2605896 -12.537598c0 -4.8513184 -1.75354 -9.030762 -5.2605896 -12.537598c-3.5070496 -3.50708 -7.68631 -5.260742 -12.537689 -5.260742zm0.39453125 59.532227c-3.9454346 0 -7.233307 1.2565918 -9.863586 3.7700195c-2.6010742 2.5134277 -3.9015808 5.845215 -3.9015808 9.995117l0 119.853516c0 3.9453125 1.3005066 7.21875 3.9015808 9.819824c2.6302795 2.6010742 5.918152 3.9016113 9.863586 3.9016113c4.1207886 0 7.4378357 -1.3005371 9.951263 -3.9016113c2.5133972 -2.6010742 3.7700806 -5.8745117 3.7700806 -9.819824l0 -119.853516c0 -4.1499023 -1.2566833 -7.4816895 -3.7700806 -9.995117c-2.5134277 -2.5134277 -5.830475 -3.7700195 -9.951263 -3.7700195z" fill-rule="evenodd"/><path stroke="#999999" stroke-width="1.0" stroke-linejoin="round" stroke-linecap="butt" d="m388.4471 2294.6594c-3.9454346 0 -6.911804 1.1689453 -8.89917 3.50708c-1.9873352 2.3381348 -2.8933105 5.1728516 -2.7179565 8.504639c0.20455933 3.3024902 1.4758606 6.4003906 3.8139343 9.293701l44.385742 52.52368l-41.71164 52.249268c-2.5133972 3.2148438 -3.7700806 6.444336 -3.7700806 9.688232c0 3.2148438 1.0229187 5.94751 3.068695 8.197754c2.0750122 2.2504883 4.909851 3.3757324 8.504578 3.3757324c3.7700806 0 6.999481 -1.4321289 9.688232 -4.2961426l40.78778 -51.30835l42.723877 51.30835c1.4320068 1.7827148 2.9516907 2.9516602 4.559143 3.506836c1.6366577 0.52612305 3.346344 0.78930664 5.129059 0.78930664c3.5947266 0 6.5172424 -1.0668945 8.767639 -3.2001953c2.2503967 -2.1628418 3.4193726 -4.807617 3.5070496 -7.9348145c0.087677 -3.15625 -1.2128296 -6.3564453 -3.9015808 -9.600586l-42.71292 -51.10742l40.56485 -53.13965c2.5133972 -3.2148438 3.8139038 -6.5317383 3.9015808 -9.951172c0.087677 -3.4194336 -0.8621216 -6.342041 -2.8494873 -8.767578c-1.9580688 -2.4257812 -4.924408 -3.6386719 -8.899139 -3.6386719c-1.9580688 0 -3.7554321 0.3215332 -5.39209 0.96435547c-1.6073608 0.61376953 -3.1270447 1.8266602 -4.559143 3.6386719l-39.620514 52.64038l-44.154175 -52.64038c-2.5133972 -3.0686035 -5.918152 -4.6030273 -10.214264 -4.6030273z" fill-rule="evenodd"/><path stroke="#999999" stroke-width="1.0" stroke-linejoin="round" stroke-linecap="butt" d="m592.3385 2316.754c8.972168 0 16.600037 2.0749512 22.883484 6.2248535c6.2835083 4.1208496 11.134888 9.732178 14.55426 16.833984c2.4313354 5.0288086 4.0425415 10.537842 4.8338013 16.526855l-89.71527 0c0.923584 -5.1311035 2.4615479 -9.924072 4.6138916 -14.378906c3.7700806 -7.8322754 9.29364 -13.984375 16.5708 -18.45581c7.2770996 -4.5007324 16.03009 -6.7509766 26.259033 -6.7509766zm0 -23.146484c-14.203552 0 -26.785095 3.1855469 -37.74463 9.556641c-10.930359 6.3710938 -19.493408 15.167969 -25.689148 26.390625c-6.195801 11.222412 -9.293701 24.198486 -9.293701 38.928223c0 14.524902 3.2732544 27.398682 9.819763 38.621338c6.546509 11.222656 15.606384 20.033936 27.179626 26.434326c11.602478 6.3710938 24.856262 9.556885 39.76117 9.556885c8.270813 0 16.936096 -1.5197754 25.996033 -4.559326c9.0598755 -3.0686035 16.64386 -7.0285645 22.752014 -11.880127c3.0394287 -2.3378906 4.4714966 -5.114502 4.2961426 -8.329102c-0.175354 -3.2441406 -1.7827148 -6.210449 -4.8222046 -8.89917c-2.2392578 -1.9033203 -4.853821 -2.8552246 -7.843689 -2.8552246c-0.13195801 0 -0.2645874 0.001953125 -0.39788818 0.0056152344c-3.1271362 0.087646484 -6.035095 1.1252441 -8.723816 3.1125488c-3.5947266 2.6887207 -8.314575 5.0705566 -14.159668 7.145752c-5.845154 2.0456543 -11.544067 3.0686035 -17.096924 3.0686035c-10.228882 0 -19.303406 -2.2358398 -27.22345 -6.7072754c-7.890869 -4.5007324 -14.08667 -10.608887 -18.587341 -18.324463c-2.9960938 -5.1694336 -4.9884033 -10.824707 -5.9769897 -16.965332l102.42084 0c3.5947266 0 6.561096 -1.125 8.89917 -3.3754883c2.3380737 -2.2502441 3.507019 -5.085205 3.507019 -8.504639c0 -14.174316 -2.6594849 -26.682617 -7.9785156 -37.52539c-5.289795 -10.871826 -12.961426 -19.405762 -23.015015 -25.601318c-10.053589 -6.195801 -22.079895 -9.293701 -36.078796 -9.293701z" fill-rule="evenodd"/><path stroke="#999999" stroke-width="1.0" stroke-linejoin="round" stroke-linecap="butt" d="m702.4784 2231.664c-3.9454346 0 -7.1748047 1.2565918 -9.688232 3.7700195c-2.5134277 2.5134277 -3.7700806 5.74292 -3.7700806 9.688232l0 147.0332c0 9.702881 1.7096558 18.280518 5.1290283 25.73291c3.4194336 7.4523926 8.168579 13.341309 14.247437 17.666748c6.1081543 4.2961426 13.122253 6.444336 21.042297 6.444336l0.526062 0c5.3774414 0 9.775879 -1.2568359 13.195251 -3.7702637c3.4193726 -2.5134277 5.1290894 -5.742676 5.1290894 -9.688232c0 -3.9453125 -1.1251831 -7.1748047 -3.3755493 -9.688232c-2.2503662 -2.5134277 -5.1729126 -3.7700195 -8.767639 -3.7700195l-6.7072144 0c-3.9454346 0 -7.189453 -2.1479492 -9.732056 -6.444092c-2.5134277 -4.3254395 -3.7700806 -9.819824 -3.7700806 -16.483154l0 -147.0332c0 -3.9453125 -1.2566528 -7.1748047 -3.7700806 -9.688232c-2.5134277 -2.5134277 -5.742798 -3.7700195 -9.688232 -3.7700195z" fill-rule="evenodd"/><path stroke="#999999" stroke-width="1.0" stroke-linejoin="round" stroke-linecap="butt" d="m924.711 2257.4846c8.241577 0 15.504089 1.8850098 21.787537 5.6552734c6.2834473 3.7700195 11.222595 8.942871 14.817322 15.518555c3.5947266 6.546631 5.39209 14.130615 5.39209 22.751953c0 8.066406 -1.7973633 15.241211 -5.39209 21.524658c-3.5947266 6.2834473 -8.5338745 11.222412 -14.817322 14.817383c-6.2834473 3.5947266 -13.545959 5.39209 -21.787537 5.39209l-39.8927 0l0 -85.65991zm-53.877075 -25.820557c-3.9454346 0 -7.2770996 1.3005371 -9.995056 3.9016113c-2.6887817 2.6010742 -4.033142 5.961914 -4.033142 10.082764l0 182.3667c0 3.9453125 1.3443604 7.262451 4.033142 9.951172c2.7179565 2.6887207 6.0496216 4.033203 9.995056 4.033203c4.1207886 0 7.4817505 -1.3444824 10.082764 -4.033203c2.6010742 -2.6887207 3.9016113 -6.0058594 3.9016113 -9.951172l0 -59.006348l39.8927 0c13.443726 0 25.367676 -2.8640137 35.77191 -8.592041c10.433472 -5.7575684 18.572754 -13.750732 24.417847 -23.979492c5.8450317 -10.258301 8.767639 -21.933838 8.767639 -35.026855c0 -13.648193 -2.9226074 -25.718262 -8.767639 -36.210205c-5.845093 -10.52124 -13.984375 -18.733398 -24.417847 -24.636963c-10.404236 -5.9328613 -22.328186 -8.89917 -35.77191 -8.89917z" fill-rule="evenodd"/><path stroke="#999999" stroke-width="1.0" stroke-linejoin="round" stroke-linecap="butt" d="m1083.3538 2317.8499c9.322876 0 17.579102 2.1625977 24.768555 6.488037c7.189453 4.2961426 12.800659 10.258057 16.833862 17.885986c4.033081 7.6276855 6.0495605 16.38086 6.0495605 26.259033c0 9.878174 -2.0164795 18.587402 -6.0495605 26.127441c-4.033203 7.540283 -9.644409 13.4729 -16.833862 17.79834c-7.189453 4.2961426 -15.445679 6.444092 -24.768555 6.444092c-9.352173 0 -17.622925 -2.1479492 -24.812378 -6.444092c-7.1602783 -4.3254395 -12.815308 -10.258057 -16.965332 -17.79834c-4.1208496 -7.540039 -6.1812744 -16.249268 -6.1812744 -26.127441c0 -9.878174 2.0604248 -18.631348 6.1812744 -26.259033c4.1500244 -7.6279297 9.805054 -13.589844 16.965332 -17.885986c7.189453 -4.3254395 15.460205 -6.488037 24.812378 -6.488037zm0 -24.242432c-14.554321 0 -27.398804 3.1855469 -38.53369 9.556641c-11.134888 6.3710938 -19.88794 15.167969 -26.259094 26.390625c-6.3710938 11.222412 -9.556702 24.198486 -9.556702 38.928223c0 14.524902 3.185608 27.398682 9.556702 38.621338c6.371155 11.222656 15.124207 20.033936 26.259094 26.434326c11.134888 6.3710938 23.97937 9.556885 38.53369 9.556885c14.525024 0 27.35498 -3.185791 38.48987 -9.556885c11.134888 -6.4003906 19.843994 -15.21167 26.127563 -26.434326c6.2834473 -11.222656 9.425171 -24.096436 9.425171 -38.621338c0 -14.729736 -3.1855469 -27.70581 -9.556763 -38.928223c-6.3710938 -11.222656 -15.1241455 -20.019531 -26.259033 -26.390625c-11.134888 -6.3710938 -23.877197 -9.556641 -38.226807 -9.556641z" fill-rule="evenodd"/><path stroke="#999999" stroke-width="1.0" stroke-linejoin="round" stroke-linecap="butt" d="m1181.6334 2294.6594c-5.2021484 0 -8.562988 1.753418 -10.082764 5.260498c-1.5196533 3.50708 -1.5635986 8.037109 -0.13146973 13.589844l39.848877 119.590576c0.9058838 2.5134277 2.5717773 4.63208 4.9974365 6.3564453c2.4257812 1.6950684 5.0706787 2.5427246 7.9348145 2.5427246c3.0686035 0 5.8011475 -0.84765625 8.197632 -2.5427246c2.4257812 -1.7243652 4.0039062 -3.8432617 4.734619 -6.3564453l27.717041 -97.71948l26.422974 97.71948c0.7305908 2.5134277 2.3526611 4.63208 4.866089 6.3564453c2.5133057 1.6950684 5.2021484 2.5427246 8.066162 2.5427246c3.0394287 0 5.7282715 -0.84765625 8.066284 -2.5427246c2.3380127 -1.7243652 3.8723145 -3.8432617 4.6029053 -6.3564453l39.848877 -119.590576c1.9873047 -5.5527344 2.0750732 -10.082764 0.26306152 -13.589844c-1.7827148 -3.50708 -5.1875 -5.260498 -10.214233 -5.260498c-6.838745 0 -11.514893 4.135498 -14.028198 12.40625l-29.547974 92.637695l-24.329102 -94.78589c-0.701416 -3.0686035 -2.1773682 -5.538086 -4.4277344 -7.4084473c-2.2503662 -1.8996582 -5.1728516 -2.8496094 -8.767578 -2.8496094c-3.7701416 0 -6.73645 0.9499512 -8.89917 2.8496094c-2.1334229 1.8703613 -3.6531982 4.3398438 -4.559204 7.4084473l-27.51477 92.97095l-29.036377 -90.822754c-1.4320068 -4.5007324 -3.2731934 -7.6862793 -5.5235596 -9.556641c-2.2503662 -1.8996582 -5.085205 -2.8496094 -8.504639 -2.8496094z" fill-rule="evenodd"/><path stroke="#999999" stroke-width="1.0" stroke-linejoin="round" stroke-linecap="butt" d="m1446.1505 2316.754c8.972168 0 16.599976 2.0749512 22.883545 6.2248535c6.2834473 4.1208496 11.134766 9.732178 14.554199 16.833984c2.4312744 5.0288086 4.0424805 10.537842 4.83374 16.526855l-89.71521 0c0.923584 -5.1311035 2.4615479 -9.924072 4.6138916 -14.378906c3.7700195 -7.8322754 9.293701 -13.984375 16.5708 -18.45581c7.2770996 -4.5007324 16.030151 -6.7509766 26.259033 -6.7509766zm0 -23.146484c-14.203613 0 -26.785156 3.1855469 -37.74463 9.556641c-10.930298 6.3710938 -19.493408 15.167969 -25.689209 26.390625c-6.195801 11.222412 -9.293579 24.198486 -9.293579 38.928223c0 14.524902 3.2731934 27.398682 9.819702 38.621338c6.546509 11.222656 15.606323 20.033936 27.179565 26.434326c11.602539 6.3710938 24.856323 9.556885 39.76123 9.556885c8.270752 0 16.936157 -1.5197754 25.995972 -4.559326c9.059937 -3.0686035 16.64392 -7.0285645 22.752075 -11.880127c3.0394287 -2.3378906 4.4714355 -5.114502 4.2961426 -8.329102c-0.17541504 -3.2441406 -1.7828369 -6.210449 -4.8222656 -8.89917c-2.2392578 -1.9033203 -4.85376 -2.8552246 -7.843628 -2.8552246c-0.13195801 0 -0.26452637 0.001953125 -0.39794922 0.0056152344c-3.1270752 0.087646484 -6.035034 1.1252441 -8.723755 3.1125488c-3.5947266 2.6887207 -8.314575 5.0705566 -14.159668 7.145752c-5.845093 2.0456543 -11.544067 3.0686035 -17.096924 3.0686035c-10.228882 0 -19.303345 -2.2358398 -27.22351 -6.7072754c-7.890869 -4.5007324 -14.08667 -10.608887 -18.58728 -18.324463c-2.9960938 -5.1694336 -4.9884033 -10.824707 -5.977051 -16.965332l102.4209 0c3.5947266 0 6.561157 -1.125 8.89917 -3.3754883c2.3380127 -2.2502441 3.506958 -5.085205 3.506958 -8.504639c0 -14.174316 -2.6594238 -26.682617 -7.9785156 -37.52539c-5.289795 -10.871826 -12.961426 -19.405762 -23.015015 -25.601318c-10.053467 -6.195801 -22.079834 -9.293701 -36.078735 -9.293701z" fill-rule="evenodd"/><path stroke="#999999" stroke-width="1.0" stroke-linejoin="round" stroke-linecap="butt" d="m1620.4255 2293.0374c-10.78418 0 -20.662354 2.5134277 -29.634521 7.540283c-6.0462646 3.3874512 -11.262939 7.571289 -15.650269 12.55127l0 0l0 -5.0112305c0 -4.4714355 -1.1251221 -7.8322754 -3.3754883 -10.082764c-2.2211914 -2.2502441 -5.5820312 -3.3754883 -10.082764 -3.3754883c-4.2961426 0 -7.6132812 1.1689453 -9.951294 3.50708c-2.3380127 2.3381348 -3.50708 5.6550293 -3.50708 9.951172l0 120.42334c0 4.4716797 1.1690674 7.8325195 3.50708 10.082764c2.3380127 2.2504883 5.6551514 3.3757324 9.951294 3.3757324c4.5007324 0 7.8615723 -1.1691895 10.082764 -3.50708c2.2503662 -2.3381348 3.3754883 -5.6552734 3.3754883 -9.951416l0 -78.64551c0 -8.270752 2.6448975 -15.094971 7.9346924 -20.472412c5.319092 -5.4067383 12.552368 -9.089111 21.699951 -11.047119c4.2163086 -0.9133301 8.676392 -1.369873 13.380127 -1.369873c5.5338135 0 11.404907 0.6320801 17.613403 1.895752c1.4329834 0.34033203 2.7945557 0.51049805 4.084839 0.51049805c0.8149414 0 1.6013184 -0.067871094 2.359375 -0.20361328c1.9873047 -0.3798828 3.7408447 -1.2419434 5.260498 -2.5864258c1.5197754 -1.3442383 2.557251 -3.2731934 3.1125488 -5.786621c1.2567139 -4.8513184 -0.77441406 -9.030762 -6.093506 -12.537598c-5.289795 -3.50708 -13.312134 -5.260742 -24.067139 -5.260742z" fill-rule="evenodd"/><path stroke="#999999" stroke-width="1.0" stroke-linejoin="round" stroke-linecap="butt" d="m1828.6206 2257.4846c8.241455 0 15.504028 1.8850098 21.787476 5.6552734c6.2834473 3.7700195 11.222534 8.942871 14.817261 15.518555c3.5947266 6.546631 5.39209 14.130615 5.39209 22.751953c0 8.066406 -1.7973633 15.241211 -5.39209 21.524658c-3.5947266 6.2834473 -8.533813 11.222412 -14.817261 14.817383c-6.2834473 3.5947266 -13.5460205 5.39209 -21.787476 5.39209l-39.8927 0l0 -85.65991zm-53.877075 -25.820557c-3.9454346 0 -7.2772217 1.3005371 -9.995117 3.9016113c-2.6887207 2.6010742 -4.033081 5.961914 -4.033081 10.082764l0 182.3667c0 3.9453125 1.3443604 7.262451 4.033081 9.951172c2.7178955 2.6887207 6.0496826 4.033203 9.995117 4.033203c4.1207275 0 7.4816895 -1.3444824 10.082764 -4.033203c2.6010742 -2.6887207 3.9016113 -6.0058594 3.9016113 -9.951172l0 -59.006348l39.8927 0c13.4436035 0 25.367554 -2.8640137 35.77185 -8.592041c10.433472 -5.7575684 18.572754 -13.750732 24.417847 -23.979492c5.845093 -10.258301 8.767578 -21.933838 8.767578 -35.026855c0 -13.648193 -2.9224854 -25.718262 -8.767578 -36.210205c-5.845093 -10.52124 -13.984375 -18.733398 -24.417847 -24.636963c-10.404175 -5.9328613 -22.328247 -8.89917 -35.77185 -8.89917z" fill-rule="evenodd"/><path stroke="#999999" stroke-width="1.0" stroke-linejoin="round" stroke-linecap="butt" d="m1987.2634 2317.8499c9.322876 0 17.579102 2.1625977 24.768555 6.488037c7.189453 4.2961426 12.800659 10.258057 16.83374 17.885986c4.033203 7.6276855 6.0496826 16.38086 6.0496826 26.259033c0 9.878174 -2.0164795 18.587402 -6.0496826 26.127441c-4.033081 7.540283 -9.644287 13.4729 -16.83374 17.79834c-7.189453 4.2961426 -15.445679 6.444092 -24.768555 6.444092c-9.352173 0 -17.622925 -2.1479492 -24.812378 -6.444092c-7.1602783 -4.3254395 -12.81543 -10.258057 -16.965454 -17.79834c-4.1207275 -7.540039 -6.1811523 -16.249268 -6.1811523 -26.127441c0 -9.878174 2.0604248 -18.631348 6.1811523 -26.259033c4.1500244 -7.6279297 9.805176 -13.589844 16.965454 -17.885986c7.189453 -4.3254395 15.460205 -6.488037 24.812378 -6.488037zm0 -24.242432c-14.554321 0 -27.398926 3.1855469 -38.533813 9.556641c-11.134888 6.3710938 -19.887817 15.167969 -26.259033 26.390625c-6.3710938 11.222412 -9.556641 24.198486 -9.556641 38.928223c0 14.524902 3.1855469 27.398682 9.556641 38.621338c6.371216 11.222656 15.1241455 20.033936 26.259033 26.434326c11.134888 6.3710938 23.979492 9.556885 38.533813 9.556885c14.525024 0 27.35498 -3.185791 38.48987 -9.556885c11.134888 -6.4003906 19.843994 -15.21167 26.127563 -26.434326c6.2834473 -11.222656 9.425049 -24.096436 9.425049 -38.621338c0 -14.729736 -3.1855469 -27.70581 -9.556641 -38.928223c-6.3710938 -11.222656 -15.1241455 -20.019531 -26.259033 -26.390625c-11.134888 -6.3710938 -23.877197 -9.556641 -38.226807 -9.556641z" fill-rule="evenodd"/><path stroke="#999999" stroke-width="1.0" stroke-linejoin="round" stroke-linecap="butt" d="m2169.0688 2317.8499c9.147461 0 17.316162 2.206543 24.505615 6.619629c7.189453 4.383789 12.844482 10.345703 16.965332 17.885742c4.1206055 7.540283 6.1811523 16.161865 6.1811523 25.864502c0 9.498291 -2.0605469 18.119873 -6.1811523 25.864502c-4.1208496 7.715576 -9.775879 13.779785 -16.965332 18.192871c-7.189453 4.383789 -15.358154 6.5756836 -24.505615 6.5756836c-9.001465 0 -17.140625 -2.1918945 -24.417725 -6.5756836c-7.248047 -4.413086 -12.990723 -10.477295 -17.228516 -18.192871c-4.208496 -7.744629 -6.312744 -16.36621 -6.312744 -25.864502c0 -9.702637 2.104248 -18.324219 6.312744 -25.864502c4.237793 -7.540039 9.980469 -13.501953 17.228516 -17.885742c7.2770996 -4.413086 15.41626 -6.619629 24.417725 -6.619629zm60.32129 -86.18579c-3.9455566 0 -7.21875 1.2565918 -9.819824 3.7700195c-2.6010742 2.5134277 -3.9016113 5.8305664 -3.9016113 9.951416l0 72.727295c-6.1081543 -7.540039 -13.662842 -13.502197 -22.664307 -17.885986c-8.972168 -4.413086 -18.748047 -6.619385 -29.327637 -6.619385c-13.122314 0 -24.885498 3.2731934 -35.289795 9.81958c-10.404053 6.546631 -18.616455 15.431152 -24.636963 26.653564c-6.020508 11.222656 -9.030518 23.935791 -9.030518 38.13916c0 14.174316 3.2731934 26.916748 9.81958 38.22705c6.546631 11.310059 15.431152 20.253174 26.653564 26.828857c11.222656 6.5463867 23.8479 9.819824 37.87622 9.819824c13.999023 0 26.565918 -3.2734375 37.700684 -9.819824c11.13501 -6.5756836 19.975586 -15.518799 26.522217 -26.828857c6.5463867 -11.310303 9.819824 -24.052734 9.819824 -38.22705l0 -122.83423c0 -4.1208496 -1.2568359 -7.4379883 -3.7702637 -9.951416c-2.5134277 -2.5134277 -5.8303223 -3.7700195 -9.951172 -3.7700195z" fill-rule="evenodd"/><path stroke="#999999" stroke-width="1.0" stroke-linejoin="round" stroke-linecap="butt" d="m2357.057 2293.6074c-14.174316 0 -26.74121 3.1855469 -37.700928 9.556641c-10.959473 6.3710938 -19.58081 15.211914 -25.864502 26.521973c-6.2834473 11.310303 -9.425049 24.242676 -9.425049 38.796875c0 14.174316 3.1855469 26.872803 9.556641 38.095215c6.3710938 11.222656 15.167969 20.121826 26.390625 26.69751c11.222412 6.5463867 24.023193 9.819824 38.4021 9.819824c19.376465 0 35.538086 -6.020508 48.485107 -18.061523c2.5134277 -2.5131836 3.5800781 -5.333496 3.2001953 -8.460693c-0.35083008 -3.15625 -2.0458984 -5.991211 -5.085205 -8.504639c-2.03833 -1.7324219 -4.354248 -2.5986328 -6.947998 -2.5986328c-0.38134766 0 -0.7687988 0.018554688 -1.1621094 0.056152344c-3.0395508 0.26293945 -5.991211 1.5634766 -8.855225 3.9016113c-3.9748535 3.2148438 -8.343994 5.5966797 -13.107666 7.145508c-4.734619 1.5197754 -10.243652 2.279541 -16.5271 2.279541c-9.527344 0 -17.885986 -2.1918945 -25.07544 -6.5756836c-7.1601562 -4.413086 -12.771484 -10.389648 -16.83374 -17.929688c-4.033203 -7.569336 -6.0495605 -16.190918 -6.0495605 -25.864502c0 -10.258301 1.9726562 -19.157227 5.9179688 -26.69751c3.9455566 -7.540039 9.425293 -13.414551 16.439453 -17.622803c7.013916 -4.208496 15.094971 -6.312744 24.242432 -6.312744c13.093018 0 24.05249 4.661377 32.878662 13.984375c2.5134277 2.5134277 5.289795 4.0915527 8.329102 4.734375c0.7783203 0.15722656 1.5395508 0.23583984 2.2834473 0.23583984c2.1608887 0 4.1760254 -0.66308594 6.0458984 -1.9892578c3.2438965 -2.3381348 5.216797 -5.0268555 5.918213 -8.066162c0.73046875 -3.0688477 -0.16088867 -6.0351562 -2.6743164 -8.89917c-6.9848633 -8.095459 -14.890381 -14.159668 -23.716309 -18.192871c-8.796875 -4.033203 -18.485107 -6.0495605 -29.064697 -6.0495605z" fill-rule="evenodd"/><path stroke="#999999" stroke-width="1.0" stroke-linejoin="round" stroke-linecap="butt" d="m2520.29 2317.8499c9.147461 0 17.316162 2.206543 24.505615 6.619629c7.189453 4.383789 12.844482 10.389404 16.965332 18.017334c4.1206055 7.6279297 6.1811523 16.293213 6.1811523 25.996094c0 9.498291 -2.0605469 18.075928 -6.1811523 25.73291c-4.1208496 7.6279297 -9.775879 13.648193 -16.965332 18.06128c-7.189453 4.383789 -15.358154 6.5756836 -24.505615 6.5756836c-9.001465 0 -17.140625 -2.1918945 -24.417969 -6.5756836c-7.2478027 -4.413086 -12.990723 -10.43335 -17.228271 -18.06128c-4.208496 -7.6569824 -6.312744 -16.23462 -6.312744 -25.73291c0 -9.702881 2.104248 -18.368164 6.312744 -25.996094c4.237549 -7.6279297 9.980469 -13.633545 17.228271 -18.017334c7.2773438 -4.413086 15.416504 -6.619629 24.417969 -6.619629zm0 -24.242432c-14.02832 0 -26.653564 3.2731934 -37.87622 9.81958c-11.222412 6.546631 -20.106934 15.4748535 -26.653564 26.785156c-6.5463867 11.310303 -9.81958 24.067139 -9.81958 38.270752c0 14.174316 3.0100098 26.872803 9.030518 38.095215c6.020508 11.222656 14.23291 20.121826 24.636963 26.69751c10.404297 6.5463867 22.167725 9.819824 35.289795 9.819824c13.093018 0 24.841553 -3.2734375 35.24585 -9.819824c6.416748 -4.0441895 11.998779 -8.967041 16.746094 -14.768555l0 0l0 10.033936c0 3.9455566 1.3005371 7.21875 3.9016113 9.819824c2.6010742 2.6010742 5.8742676 3.9016113 9.819824 3.9016113c3.9453125 0 7.218506 -1.3005371 9.819824 -3.9016113c2.6010742 -2.6010742 3.9013672 -5.8742676 3.9013672 -9.819824l0 -60.058105c0 -14.203613 -3.2731934 -26.96045 -9.81958 -38.270752c-6.546631 -11.310303 -15.387207 -20.238525 -26.522217 -26.785156c-11.134766 -6.5463867 -23.70166 -9.81958 -37.700684 -9.81958z" fill-rule="evenodd"/><path stroke="#999999" stroke-width="1.0" stroke-linejoin="round" stroke-linecap="butt" d="m2687.0151 2293.6074c-9.176758 0 -17.988281 1.4758301 -26.434326 4.42749c-8.416992 2.9519043 -15.328857 7.4379883 -20.735352 13.458252c-5.3776855 6.020508 -8.066406 13.604492 -8.066406 22.752197c0 10.43335 4.0769043 19.244873 12.230957 26.434326c8.183105 7.1601562 21.349121 12.537598 39.498047 16.132324c13.999023 2.5134277 23.643555 5.7575684 28.93335 9.732178c5.289551 3.9453125 7.846924 8.606934 7.671631 13.984375c-0.17553711 5.3774414 -3.010254 9.775879 -8.504639 13.1953125c-5.465088 3.4191895 -13.399902 5.1289062 -23.8042 5.1289062c-8.270752 0 -15.76709 -1.4758301 -22.489014 -4.42749c-6.7216797 -2.980957 -11.616943 -6.1811523 -14.685547 -9.600586c-2.5134277 -2.6887207 -5.5236816 -4.2524414 -9.030762 -4.690674c-0.48388672 -0.06518555 -0.96899414 -0.09765625 -1.4550781 -0.09765625c-3.0080566 0 -6.059326 1.2453613 -9.153809 3.736084c-3.0686035 2.308838 -4.83667 5.3044434 -5.3044434 8.986816c-0.43823242 3.682373 0.701416 6.970459 3.4194336 9.86377c5.9035645 5.9033203 14.203613 10.798584 24.900146 14.685547c10.696533 3.8579102 22.328125 5.786865 34.89502 5.786865c12.742432 0 23.380371 -1.9729004 31.914307 -5.918213c8.533691 -3.9746094 14.992676 -9.279053 19.376465 -15.91333c4.412842 -6.634033 6.619385 -14.08667 6.619385 -22.357422c0 -7.189453 -1.7097168 -13.516846 -5.1289062 -18.981934c-3.4194336 -5.494385 -9.030762 -10.302002 -16.833984 -14.422607c-7.8032227 -4.1208496 -18.441162 -7.525635 -31.914062 -10.214355c-9.702881 -1.9873047 -17.067627 -4.0039062 -22.094482 -6.0498047c-5.0266113 -2.0749512 -8.402344 -4.412842 -10.126465 -7.013916c-1.6950684 -2.6010742 -2.5427246 -5.5236816 -2.5427246 -8.767578c0 -5.2021484 2.732666 -9.147705 8.197754 -11.836426c5.494385 -2.7180176 12.187012 -4.0769043 20.07788 -4.0769043c6.838623 0 12.859131 0.8183594 18.06128 2.454834c5.2021484 1.6074219 10.053467 4.5739746 14.554199 8.89917c2.6887207 2.5134277 6.0058594 4.135498 9.951416 4.865967c1.0290527 0.18310547 2.022705 0.2746582 2.9802246 0.2746582c2.713379 0 5.13916 -0.73461914 7.277832 -2.2033691c2.8640137 -2.1628418 4.383789 -4.807617 4.559082 -7.9348145c0.17529297 -3.15625 -0.99365234 -6.166504 -3.50708 -9.030518c-5.3774414 -6.6342773 -12.654541 -11.836426 -21.831299 -15.606445c-9.147461 -3.7700195 -19.639404 -5.6550293 -31.47583 -5.6550293z" fill-rule="evenodd"/><path stroke="#999999" stroke-width="1.0" stroke-linejoin="round" stroke-linecap="butt" d="m2801.178 2247.7964c-3.9453125 0 -7.1748047 1.2568359 -9.688232 3.7702637c-2.5134277 2.5131836 -3.7700195 5.742676 -3.7700195 9.688232l0 38.79663l-12.362305 0c-3.7700195 0 -6.8242188 1.0812988 -9.162109 3.2441406c-2.3381348 2.1625977 -3.50708 5.0266113 -3.50708 8.592285c0 3.2438965 1.1689453 5.9472656 3.50708 8.109863c2.3378906 2.133545 5.39209 3.2001953 9.162109 3.2001953l12.362305 0l0 66.54639c0 9.878174 2.0603027 18.777344 6.1811523 26.697266c4.1501465 7.890869 9.805176 14.130615 16.965332 18.718994c7.189453 4.559082 15.284912 6.838867 24.286377 6.838867l4.8222656 0c4.6760254 0 8.48999 -1.2568359 11.44165 -3.7702637c2.980957 -2.5134277 4.4714355 -5.742676 4.4714355 -9.688232c0 -3.9453125 -1.125 -7.1748047 -3.3754883 -9.688232c-2.2502441 -2.5134277 -4.98291 -3.7700195 -8.197754 -3.7700195l-9.162109 0c-5.757324 0 -10.608887 -2.4257812 -14.554199 -7.2770996c-3.9455566 -4.8513184 -5.918213 -10.871826 -5.918213 -18.06128l0 -66.54639l22.883545 0c3.7700195 0 6.8239746 -1.0666504 9.162109 -3.2001953c2.3381348 -2.1625977 3.50708 -4.865967 3.50708 -8.109863c0 -3.5656738 -1.1689453 -6.4296875 -3.50708 -8.592285c-2.3381348 -2.1628418 -5.39209 -3.2441406 -9.162109 -3.2441406l-22.883545 0l0 -38.79663c0 -3.9455566 -1.2565918 -7.175049 -3.7700195 -9.688232c-2.5134277 -2.5134277 -5.7575684 -3.7702637 -9.732178 -3.7702637z" fill-rule="evenodd"/></g></svg>